<?xml version="1.0" encoding="utf-8"?>
<!-- Generator: Adobe Illustrator 16.0.0, SVG Export Plug-In . SVG Version: 6.00 Build 0)  -->
<!DOCTYPE svg PUBLIC "-//W3C//DTD SVG 1.1//EN" "http://www.w3.org/Graphics/SVG/1.1/DTD/svg11.dtd">
<svg version="1.1" id="Layer_1" xmlns="http://www.w3.org/2000/svg" xmlns:xlink="http://www.w3.org/1999/xlink" x="0px" y="0px"
	 width="1080px" height="1080px" viewBox="0 0 1080 1080" enable-background="new 0 0 1080 1080" xml:space="preserve">
<g>
	<path id="XMLID_572_" fill="#7E6F4E" d="M352.919,571.928l0.944,0.123c0.002-0.078,0.002-0.16,0.006-0.246L352.919,571.928z"/>
	<polygon id="XMLID_571_" fill="#7E6F4E" points="558.719,781.992 558.762,781.65 558.676,781.65 	"/>
	<g>
		
			<rect id="XMLID_712_" x="366.307" y="559.444" transform="matrix(0.9971 0.0762 -0.0762 0.9971 43.7757 -26.7786)" fill="#989897" width="12.656" height="1.085"/>
		
			<rect id="XMLID_711_" x="367.735" y="546.602" transform="matrix(0.9887 0.1502 -0.1502 0.9887 86.4182 -49.9741)" fill="#989897" width="12.653" height="1.084"/>
		
			<rect id="XMLID_710_" x="370.234" y="533.993" transform="matrix(0.9746 0.2238 -0.2238 0.9746 129.1631 -70.7088)" fill="#989897" width="12.656" height="1.086"/>
		
			<rect id="XMLID_709_" x="373.504" y="521.506" transform="matrix(0.9551 0.2964 -0.2964 0.9551 171.7935 -89.1194)" fill="#989897" width="12.652" height="1.086"/>
		
			<rect id="XMLID_708_" x="377.82" y="509.371" transform="matrix(0.9303 0.3669 -0.3669 0.9303 213.8528 -105.3757)" fill="#989897" width="12.655" height="1.084"/>
		
			<rect id="XMLID_707_" x="382.962" y="497.571" transform="matrix(0.9001 0.4357 -0.4357 0.9001 255.9173 -119.847)" fill="#989897" width="12.655" height="1.086"/>
		
			<rect id="XMLID_706_" x="389.031" y="486.218" transform="matrix(0.8651 0.5016 -0.5016 0.8651 297.4622 -132.6426)" fill="#989897" width="12.654" height="1.086"/>
		
			<rect id="XMLID_705_" x="395.909" y="475.322" transform="matrix(0.8254 0.5645 -0.5645 0.8254 338.8358 -143.9922)" fill="#989897" width="12.657" height="1.085"/>
		
			<rect id="XMLID_704_" x="403.553" y="464.948" transform="matrix(0.7813 0.6242 -0.6242 0.7813 380.2186 -154.028)" fill="#989897" width="12.654" height="1.085"/>
		
			<rect id="XMLID_703_" x="417.749" y="449.408" transform="matrix(0.6824 -0.731 0.731 0.6824 -200.2841 450.5189)" fill="#989897" width="1.085" height="12.655"/>
		
			<rect id="XMLID_702_" x="426.89" y="440.326" transform="matrix(0.7314 -0.6819 0.6819 0.7314 -189.7839 411.4171)" fill="#989897" width="1.084" height="12.654"/>
		
			<rect id="XMLID_701_" x="430.851" y="437.696" transform="matrix(-0.6242 -0.7812 0.7812 -0.6242 367.7184 1053.3412)" fill="#989897" width="12.653" height="1.083"/>
		
			<rect id="XMLID_700_" x="441.195" y="429.973" transform="matrix(-0.5646 -0.8254 0.8254 -0.5646 344.8739 1042.953)" fill="#989897" width="12.652" height="1.083"/>
		
			<rect id="XMLID_699_" x="452.093" y="423.132" transform="matrix(-0.5017 -0.865 0.865 -0.5017 321.9233 1032.7852)" fill="#989897" width="12.652" height="1.083"/>
		
			<rect id="XMLID_698_" x="463.483" y="417.087" transform="matrix(-0.4357 -0.9001 0.9001 -0.4357 298.617 1022.4669)" fill="#989897" width="12.654" height="1.085"/>
		
			<rect id="XMLID_697_" x="475.287" y="411.933" transform="matrix(-0.367 -0.9302 0.9302 -0.367 274.6705 1011.8627)" fill="#989897" width="12.656" height="1.087"/>
		
			<rect id="XMLID_696_" x="487.418" y="407.585" transform="matrix(-0.2961 -0.9552 0.9552 -0.2961 250.1045 1000.5734)" fill="#989897" width="12.652" height="1.087"/>
		
			<rect id="XMLID_695_" x="499.894" y="404.324" transform="matrix(-0.2239 -0.9746 0.9746 -0.2239 224.9537 988.874)" fill="#989897" width="12.655" height="1.084"/>
		
			<rect id="XMLID_694_" x="512.518" y="401.834" transform="matrix(-0.1503 -0.9886 0.9886 -0.1503 199.0342 975.8105)" fill="#989897" width="12.656" height="1.084"/>
		
			<rect id="XMLID_693_" x="525.308" y="400.463" transform="matrix(-0.0764 -0.9971 0.9971 -0.0764 172.4196 961.7241)" fill="#989897" width="12.654" height="1.084"/>
		
			<rect id="XMLID_692_" x="557.876" y="394.678" transform="matrix(0.997 0.0773 -0.0773 0.997 32.6754 -41.974)" fill="#989897" width="1.086" height="12.654"/>
		
			<rect id="XMLID_691_" x="570.716" y="396.066" transform="matrix(0.9887 0.1502 -0.1502 0.9887 66.9356 -81.2544)" fill="#989897" width="1.086" height="12.655"/>
		
			<rect id="XMLID_690_" x="583.352" y="398.564" transform="matrix(0.9752 0.2211 -0.2211 0.9752 103.9806 -119.0866)" fill="#989897" width="1.086" height="12.652"/>
		
			<rect id="XMLID_689_" x="595.785" y="401.852" transform="matrix(0.9553 0.2957 -0.2957 0.9553 147.3448 -158.064)" fill="#989897" width="1.087" height="12.656"/>
		
			<rect id="XMLID_688_" x="607.956" y="406.145" transform="matrix(0.9306 0.366 -0.366 0.9306 193.1586 -194.0726)" fill="#989897" width="1.086" height="12.655"/>
		
			<rect id="XMLID_687_" x="619.761" y="411.313" transform="matrix(0.8998 0.4364 -0.4364 0.8998 244.4147 -228.8169)" fill="#989897" width="1.083" height="12.655"/>
		
			<rect id="XMLID_686_" x="631.069" y="417.369" transform="matrix(-0.8654 -0.5011 0.5011 -0.8654 965.9094 1106.8472)" fill="#989897" width="1.086" height="12.654"/>
		
			<rect id="XMLID_685_" x="642.01" y="424.194" transform="matrix(-0.8256 -0.5642 0.5642 -0.8256 930.1392 1148.5131)" fill="#989897" width="1.083" height="12.654"/>
		
			<rect id="XMLID_684_" x="652.37" y="431.891" transform="matrix(-0.7818 -0.6235 0.6235 -0.7818 890.1586 1187.9159)" fill="#989897" width="1.085" height="12.655"/>
		
			<rect id="XMLID_683_" x="662.103" y="440.278" transform="matrix(-0.7327 -0.6805 0.6805 -0.7327 844.2601 1224.7905)" fill="#989897" width="1.085" height="12.655"/>
		
			<rect id="XMLID_682_" x="665.414" y="455.207" transform="matrix(-0.7328 0.6804 -0.6804 -0.7328 1474.108 332.6626)" fill="#989897" width="12.654" height="1.083"/>
		
			<rect id="XMLID_681_" x="673.816" y="464.969" transform="matrix(0.7813 -0.6242 0.6242 0.7813 -141.8024 526.3564)" fill="#989897" width="12.657" height="1.087"/>
		
			<rect id="XMLID_680_" x="681.499" y="475.291" transform="matrix(0.8254 -0.5646 0.5646 0.8254 -148.5367 471.4421)" fill="#989897" width="12.654" height="1.085"/>
		
			<rect id="XMLID_679_" x="688.358" y="486.247" transform="matrix(0.865 -0.5018 0.5018 0.865 -150.4735 414.2816)" fill="#989897" width="12.655" height="1.083"/>
		
			<rect id="XMLID_678_" x="694.44" y="497.609" transform="matrix(0.9001 -0.4357 0.4357 0.9001 -147.0361 355.1164)" fill="#989897" width="12.654" height="1.085"/>
		
			<rect id="XMLID_677_" x="699.611" y="509.358" transform="matrix(0.9302 -0.367 0.367 0.9302 -137.8696 294.6433)" fill="#989897" width="12.653" height="1.085"/>
		
			<rect id="XMLID_676_" x="703.917" y="521.492" transform="matrix(0.9551 -0.2963 0.2963 0.9551 -122.7826 233.8804)" fill="#989897" width="12.653" height="1.083"/>
		
			<rect id="XMLID_675_" x="707.193" y="533.932" transform="matrix(0.9747 -0.2236 0.2236 0.9747 -101.4583 173.1105)" fill="#989897" width="12.655" height="1.085"/>
		
			<rect id="XMLID_674_" x="709.711" y="546.627" transform="matrix(0.9886 -0.1503 0.1503 0.9886 -74.085 113.7989)" fill="#989897" width="12.654" height="1.081"/>
		
			<rect id="XMLID_673_" x="711.097" y="559.391" transform="matrix(0.9971 -0.0762 0.0762 0.9971 -40.5666 56.2739)" fill="#989897" width="12.654" height="1.085"/>
		
			<rect id="XMLID_672_" x="711.095" y="586.22" transform="matrix(-0.9971 -0.0764 0.0764 -0.9971 1387.9182 1226.6245)" fill="#989897" width="12.654" height="1.087"/>
		
			<rect id="XMLID_671_" x="709.685" y="599.056" transform="matrix(-0.9887 -0.1502 0.1502 -0.9887 1333.8577 1299.9255)" fill="#989897" width="12.654" height="1.083"/>
		
			<rect id="XMLID_670_" x="707.164" y="611.657" transform="matrix(-0.9746 -0.2239 0.2239 -0.9746 1271.8267 1368.584)" fill="#989897" width="12.655" height="1.084"/>
		
			<rect id="XMLID_669_" x="703.929" y="624.113" transform="matrix(-0.9552 -0.296 0.296 -0.9552 1203.7732 1431.5643)" fill="#989897" width="12.655" height="1.086"/>
		
			<rect id="XMLID_668_" x="699.592" y="636.228" transform="matrix(-0.9302 -0.367 0.367 -0.9302 1128.8643 1488.1902)" fill="#989897" width="12.655" height="1.086"/>
		
			<rect id="XMLID_667_" x="694.448" y="648.121" transform="matrix(-0.9 -0.4358 0.4358 -0.9 1048.7971 1537.894)" fill="#989897" width="12.654" height="1.086"/>
		
			<rect id="XMLID_666_" x="688.401" y="659.453" transform="matrix(-0.8652 -0.5015 0.5015 -0.8652 964.7908 1579.4016)" fill="#989897" width="12.653" height="1.085"/>
		
			<rect id="XMLID_665_" x="681.488" y="670.346" transform="matrix(-0.8253 -0.5647 0.5647 -0.8253 876.6555 1612.9722)" fill="#989897" width="12.656" height="1.085"/>
		
			<rect id="XMLID_664_" x="673.852" y="680.69" transform="matrix(-0.7812 -0.6243 0.6243 -0.7812 786.2314 1638.0375)" fill="#989897" width="12.655" height="1.086"/>
		
			<rect id="XMLID_663_" x="665.426" y="690.403" transform="matrix(0.7329 0.6803 -0.6803 0.7329 649.507 -272.4668)" fill="#989897" width="12.654" height="1.083"/>
		
			<rect id="XMLID_662_" x="656.34" y="699.591" transform="matrix(-0.6805 -0.7328 0.7328 -0.6805 600.5435 1662.1395)" fill="#989897" width="12.655" height="1.086"/>
		
			<rect id="XMLID_661_" x="646.507" y="707.958" transform="matrix(-0.6243 -0.7812 0.7812 -0.6243 506.9745 1660.8093)" fill="#989897" width="12.654" height="1.086"/>
		
			<rect id="XMLID_660_" x="636.231" y="715.586" transform="matrix(-0.5646 -0.8254 0.8254 -0.5646 414.2969 1650.8029)" fill="#989897" width="12.652" height="1.085"/>
		
			<rect id="XMLID_659_" x="625.32" y="722.455" transform="matrix(-0.5017 -0.865 0.865 -0.5017 323.1458 1632.1334)" fill="#989897" width="12.658" height="1.083"/>
		
			<rect id="XMLID_658_" x="613.936" y="728.616" transform="matrix(-0.4356 -0.9001 0.9001 -0.4356 234.1373 1605.1215)" fill="#989897" width="12.657" height="1.088"/>
		
			<rect id="XMLID_657_" x="602.132" y="733.677" transform="matrix(-0.367 -0.9302 0.9302 -0.367 148.7977 1569.6912)" fill="#989897" width="12.655" height="1.085"/>
		
			<rect id="XMLID_656_" x="590.022" y="738.042" transform="matrix(-0.2963 -0.9551 0.9551 -0.2963 67.6221 1526.9924)" fill="#989897" width="12.653" height="1.085"/>
		
			<rect id="XMLID_655_" x="577.534" y="741.363" transform="matrix(-0.2237 -0.9747 0.9747 -0.2237 -8.6086 1476.9541)" fill="#989897" width="12.654" height="1.085"/>
		
			<rect id="XMLID_654_" x="564.85" y="743.772" transform="matrix(-0.1501 -0.9887 0.9887 -0.1501 -78.9907 1420.7213)" fill="#989897" width="12.657" height="1.083"/>
		
			<rect id="XMLID_653_" x="552.092" y="745.233" transform="matrix(-0.0765 -0.9971 0.9971 -0.0765 -142.4249 1359.6416)" fill="#989897" width="12.656" height="1.085"/>
		
			<rect id="XMLID_652_" x="531.079" y="739.381" transform="matrix(-0.9971 -0.0756 0.0756 -0.9971 1005.3499 1529.4723)" fill="#989897" width="1.085" height="12.655"/>
		
			<rect id="XMLID_651_" x="518.289" y="737.957" transform="matrix(-0.9887 -0.1498 0.1498 -0.9887 920.3525 1557.8723)" fill="#989897" width="1.083" height="12.655"/>
		
			<rect id="XMLID_650_" x="505.656" y="735.533" transform="matrix(-0.9752 -0.2211 0.2211 -0.9752 835.8326 1577.2856)" fill="#989897" width="1.086" height="12.655"/>
		
			<rect id="XMLID_649_" x="493.197" y="732.227" transform="matrix(-0.9553 -0.2956 0.2956 -0.9553 747.0925 1590.0554)" fill="#989897" width="1.084" height="12.655"/>
		
			<rect id="XMLID_648_" x="481.061" y="727.869" transform="matrix(-0.9304 -0.3664 0.3664 -0.9304 660.6797 1593.7994)" fill="#989897" width="1.087" height="12.654"/>
		
			<rect id="XMLID_647_" x="469.22" y="722.799" transform="matrix(-0.8987 -0.4386 0.4386 -0.8987 572.1698 1590.4167)" fill="#989897" width="1.087" height="12.657"/>
		
			<rect id="XMLID_646_" x="452.133" y="722.496" transform="matrix(0.5017 -0.865 0.865 0.5017 -397.0083 756.8724)" fill="#989897" width="12.654" height="1.086"/>
		
			<rect id="XMLID_645_" x="447.006" y="709.869" transform="matrix(0.8242 0.5663 -0.5663 0.8242 484.2231 -127.5405)" fill="#989897" width="1.086" height="12.657"/>
		
			<rect id="XMLID_644_" x="436.632" y="702.188" transform="matrix(0.7802 0.6256 -0.6256 0.7802 539.3319 -117.7295)" fill="#989897" width="1.087" height="12.652"/>
		
			<rect id="XMLID_643_" x="426.868" y="693.799" transform="matrix(0.7327 0.6806 -0.6806 0.7327 590.7216 -103.731)" fill="#989897" width="1.086" height="12.654"/>
		
			<rect id="XMLID_642_" x="412" y="690.448" transform="matrix(0.7329 -0.6804 0.6804 0.7329 -358.384 469.2159)" fill="#989897" width="12.655" height="1.083"/>
		
			<rect id="XMLID_641_" x="403.579" y="680.689" transform="matrix(-0.7812 0.6243 -0.6243 -0.7812 1155.4117 957.4957)" fill="#989897" width="12.655" height="1.087"/>
		
			<rect id="XMLID_640_" x="395.907" y="670.359" transform="matrix(-0.8254 0.5645 -0.5645 -0.8254 1112.9927 997.5844)" fill="#989897" width="12.654" height="1.083"/>
		
			<rect id="XMLID_639_" x="389.035" y="659.438" transform="matrix(-0.8651 0.5016 -0.5016 -0.8651 1068.4548 1032.5781)" fill="#989897" width="12.654" height="1.083"/>
		
			<rect id="XMLID_638_" x="382.967" y="648.069" transform="matrix(-0.9001 0.4357 -0.4357 -0.9001 1022.2784 1062.8311)" fill="#989897" width="12.656" height="1.085"/>
		
			<rect id="XMLID_637_" x="377.871" y="636.261" transform="matrix(-0.9302 0.3672 -0.3672 -0.9302 975.3701 1088.072)" fill="#989897" width="12.655" height="1.086"/>
		
			<rect id="XMLID_636_" x="373.475" y="624.124" transform="matrix(-0.9551 0.2963 -0.2963 -0.9551 927.6169 1108.7671)" fill="#989897" width="12.651" height="1.085"/>
		
			<rect id="XMLID_635_" x="370.189" y="611.696" transform="matrix(-0.9747 0.2236 -0.2236 -0.9747 880.4099 1124.7732)" fill="#989897" width="12.655" height="1.084"/>
		
			<rect id="XMLID_634_" x="367.727" y="599.043" transform="matrix(-0.9887 0.15 -0.15 -0.9887 833.7931 1136.2953)" fill="#989897" width="12.653" height="1.083"/>
		
			<rect id="XMLID_633_" x="366.319" y="586.247" transform="matrix(-0.9971 0.0765 -0.0765 -0.9971 789.1177 1143.3326)" fill="#989897" width="12.655" height="1.085"/>
		<g id="XMLID_2_">
			<path id="XMLID_392_" fill="#8CC640" d="M504.797,371.014l11.961,10.656l7.979-13.565
				C516.083,368.741,504.797,371.014,504.797,371.014z"/>
			
				<linearGradient id="XMLID_3_" gradientUnits="userSpaceOnUse" x1="720.0371" y1="337.3418" x2="738.543" y2="337.3418" gradientTransform="matrix(1 0 0 -1 -266 725)">
				<stop  offset="0" style="stop-color:#E90880"/>
				<stop  offset="1" style="stop-color:#A81F64"/>
			</linearGradient>
			<path id="XMLID_393_" fill="url(#XMLID_3_)" d="M454.037,388.044l14.312,7.199l4.194-15.17
				C464.35,382.93,454.037,388.044,454.037,388.044z"/>
			<path id="XMLID_394_" fill="#8CC640" d="M409.412,417.633l15.688,3.25l0.125-15.738
				C418.049,410.024,409.412,417.633,409.412,417.633z"/>
			
				<linearGradient id="XMLID_4_" gradientUnits="userSpaceOnUse" x1="639.9697" y1="275.314" x2="655.9619" y2="275.314" gradientTransform="matrix(1 0 0 -1 -266 725)">
				<stop  offset="0" style="stop-color:#E90880"/>
				<stop  offset="1" style="stop-color:#A81F64"/>
			</linearGradient>
			<path id="XMLID_395_" fill="url(#XMLID_4_)" d="M373.97,457.763l15.992-0.921l-3.951-15.232
				C380.343,448.177,373.97,457.763,373.97,457.763z"/>
			<path id="XMLID_396_" fill="#8CC640" d="M350.118,505.7l15.209-5.031l-7.758-13.691C353.792,494.79,350.118,505.7,350.118,505.7z
				"/>
			
				<linearGradient id="XMLID_5_" gradientUnits="userSpaceOnUse" x1="605.4863" y1="176.8306" x2="618.877" y2="176.8306" gradientTransform="matrix(1 0 0 -1 -266 725)">
				<stop  offset="0" style="stop-color:#E90880"/>
				<stop  offset="1" style="stop-color:#A81F64"/>
			</linearGradient>
			<path id="XMLID_398_" fill="url(#XMLID_5_)" d="M339.486,558.176l13.391-8.797l-11.039-11.216
				C340.213,546.688,339.486,558.176,339.486,558.176z"/>
		</g>
		<g id="XMLID_400_">
			
				<linearGradient id="XMLID_6_" gradientUnits="userSpaceOnUse" x1="825.8076" y1="350.8477" x2="845.834" y2="350.8477" gradientTransform="matrix(1 0 0 -1 -266 725)">
				<stop  offset="0" style="stop-color:#E90880"/>
				<stop  offset="1" style="stop-color:#A81F64"/>
			</linearGradient>
			<path id="XMLID_411_" fill="url(#XMLID_6_)" d="M579.834,369.74l-11.593,11.056l-8.434-13.287
				C568.48,367.853,579.834,369.74,579.834,369.74z"/>
			<path id="XMLID_409_" fill="#8CC640" d="M631.144,385.041l-14.06,7.679l-4.708-15.018
				C620.664,380.278,631.144,385.041,631.144,385.041z"/>
			
				<linearGradient id="XMLID_7_" gradientUnits="userSpaceOnUse" x1="926.5156" y1="315.9834" x2="942.7432" y2="315.9834" gradientTransform="matrix(1 0 0 -1 -266 725)">
				<stop  offset="0" style="stop-color:#E90880"/>
				<stop  offset="1" style="stop-color:#A81F64"/>
			</linearGradient>
			<path id="XMLID_408_" fill="url(#XMLID_7_)" d="M676.743,413.101l-15.566,3.777l-0.661-15.723
				C667.854,405.786,676.743,413.101,676.743,413.101z"/>
			<path id="XMLID_407_" fill="#8CC640" d="M713.528,452.007l-16.018-0.381l3.434-15.357
				C706.834,442.642,713.528,452.007,713.528,452.007z"/>
			
				<linearGradient id="XMLID_8_" gradientUnits="userSpaceOnUse" x1="989.6172" y1="235.1226" x2="1004.9883" y2="235.1226" gradientTransform="matrix(1 0 0 -1 -266 725)">
				<stop  offset="0" style="stop-color:#E90880"/>
				<stop  offset="1" style="stop-color:#A81F64"/>
			</linearGradient>
			<path id="XMLID_406_" fill="url(#XMLID_8_)" d="M738.988,499.106l-15.371-4.513l7.291-13.945
				C734.947,488.329,738.988,499.106,738.988,499.106z"/>
			<path id="XMLID_405_" fill="#8CC640" d="M751.392,551.193l-13.681-8.338l10.652-11.586
				C750.277,539.735,751.392,551.193,751.392,551.193z"/>
		</g>
		<g id="XMLID_423_">
			<path id="XMLID_432_" fill="#8CC640" d="M584.259,780.578l-11.855-10.771l-8.109,13.488
				C572.952,782.742,584.259,780.578,584.259,780.578z"/>
			
				<linearGradient id="XMLID_9_" gradientUnits="userSpaceOnUse" x1="882.5996" y1="-39.2666" x2="901.1816" y2="-39.2666" gradientTransform="matrix(1 0 0 -1 -266 725)">
				<stop  offset="0" style="stop-color:#E90880"/>
				<stop  offset="1" style="stop-color:#A81F64"/>
			</linearGradient>
			<path id="XMLID_431_" fill="url(#XMLID_9_)" d="M635.182,764.039l-14.239-7.336L616.6,771.83
				C624.821,769.055,635.182,764.039,635.182,764.039z"/>
			<path id="XMLID_429_" fill="#8CC640" d="M680.09,734.883l-15.655-3.399l-0.278,15.735
				C671.381,742.41,680.09,734.883,680.09,734.883z"/>
			
				<linearGradient id="XMLID_10_" gradientUnits="userSpaceOnUse" x1="965.9199" y1="21.8828" x2="981.9209" y2="21.8828" gradientTransform="matrix(1 0 0 -1 -266 725)">
				<stop  offset="0" style="stop-color:#E90880"/>
				<stop  offset="1" style="stop-color:#A81F64"/>
			</linearGradient>
			<path id="XMLID_427_" fill="url(#XMLID_10_)" d="M715.921,695.098l-16.001,0.769l3.803,15.271
				C709.456,704.621,715.921,695.098,715.921,695.098z"/>
			<path id="XMLID_426_" fill="#8CC640" d="M740.233,647.396l-15.259,4.881l7.628,13.766
				C736.455,658.268,740.233,647.396,740.233,647.396z"/>
			
				<linearGradient id="XMLID_11_" gradientUnits="userSpaceOnUse" x1="1003.8984" y1="119.9829" x2="1017.3721" y2="119.9829" gradientTransform="matrix(1 0 0 -1 -266 725)">
				<stop  offset="0" style="stop-color:#E90880"/>
				<stop  offset="1" style="stop-color:#A81F64"/>
			</linearGradient>
			<path id="XMLID_425_" fill="url(#XMLID_11_)" d="M751.372,595.023l-13.474,8.666l10.929,11.321
				C750.534,606.504,751.372,595.023,751.372,595.023z"/>
		</g>
		<g id="XMLID_413_">
			
				<linearGradient id="XMLID_12_" gradientUnits="userSpaceOnUse" x1="769.2422" y1="-51.2119" x2="789.168" y2="-51.2119" gradientTransform="matrix(1 0 0 -1 -266 725)">
				<stop  offset="0" style="stop-color:#E90880"/>
				<stop  offset="1" style="stop-color:#A81F64"/>
			</linearGradient>
			<path id="XMLID_421_" fill="url(#XMLID_12_)" d="M503.242,780.012l12.01-10.6l7.916,13.6
				C514.517,782.336,503.242,780.012,503.242,780.012z"/>
			<path id="XMLID_420_" fill="#8CC640" d="M452.562,762.752l14.342-7.133l4.126,15.188
				C462.849,767.912,452.562,762.752,452.562,762.752z"/>
			
				<linearGradient id="XMLID_13_" gradientUnits="userSpaceOnUse" x1="674.0713" y1="-12.6509" x2="689.8271" y2="-12.6509" gradientTransform="matrix(1 0 0 -1 -266 725)">
				<stop  offset="0" style="stop-color:#E90880"/>
				<stop  offset="1" style="stop-color:#A81F64"/>
			</linearGradient>
			<path id="XMLID_419_" fill="url(#XMLID_13_)" d="M408.071,732.959l15.701-3.176l0.055,15.735
				C416.673,740.607,408.071,732.959,408.071,732.959z"/>
			<path id="XMLID_417_" fill="#8CC640" d="M372.81,692.67l15.988,0.994l-4.02,15.217C379.138,702.283,372.81,692.67,372.81,692.67z
				"/>
			
				<linearGradient id="XMLID_14_" gradientUnits="userSpaceOnUse" x1="615.1777" y1="70.998" x2="630.3633" y2="70.998" gradientTransform="matrix(1 0 0 -1 -266 725)">
				<stop  offset="0" style="stop-color:#E90880"/>
				<stop  offset="1" style="stop-color:#A81F64"/>
			</linearGradient>
			<path id="XMLID_415_" fill="url(#XMLID_14_)" d="M349.178,644.625l15.186,5.1l-7.819,13.654
				C352.802,655.549,349.178,644.625,349.178,644.625z"/>
			<path id="XMLID_414_" fill="#8CC640" d="M338.786,592.102l13.348,8.855l-11.091,11.166
				C339.458,603.592,338.786,592.102,338.786,592.102z"/>
		</g>
	</g>
	
		<text id="XMLID_399_" transform="matrix(1 0 0 1 528.8228 344.9238)" fill="#2A2B2A" font-family="'Palatino-Roman'" font-size="39.8908">W</text>
	<g id="XMLID_435_">
		<text transform="matrix(1 0 0 1 532.9409 852.8301)" fill="#2A2B2A" font-family="'Palatino-Roman'" font-size="39.8908">E</text>
	</g>
	<g id="XMLID_439_">
		<text transform="matrix(1 0 0 1 272.937 600.2285)" fill="#2A2B2A" font-family="'Palatino-Roman'" font-size="39.8908">S</text>
	</g>
	<g id="XMLID_440_">
		<text transform="matrix(1 0 0 1 782.6963 600.2285)" fill="#2A2B2A" font-family="'Palatino-Roman'" font-size="39.8908">N</text>
	</g>
	<g>
		
			<image overflow="visible" opacity="0.3" enable-background="new    " width="48" height="271" xlink:href="9A089C82635596CC.png"  transform="matrix(1 0 0 1 522.5 436.5)">
		</image>
		<g>
			<g>
				<g>
					<polygon fill="#DD1F26" points="544.107,550.16 561.711,570.418 552.812,505.938 543.916,441.456 					"/>
					<polygon fill="#B51F24" points="544.107,550.16 526.568,570.48 535.243,505.969 543.916,441.456 					"/>
				</g>
				<g>
					<polygon fill="#304FA1" points="544.177,590.74 526.568,570.48 535.466,634.965 544.361,699.447 					"/>
					<polygon fill="#4462AC" points="544.177,590.74 561.711,570.418 553.033,634.936 544.361,699.447 					"/>
				</g>
				
					<linearGradient id="SVGID_1_" gradientUnits="userSpaceOnUse" x1="835.1191" y1="-94.3223" x2="876.7627" y2="-94.3223" gradientTransform="matrix(0.4683 0.8836 0.8836 -0.4683 226.646 -229.4623)">
					<stop  offset="0" style="stop-color:#D0D0CF"/>
					<stop  offset="0.3376" style="stop-color:#E1E1E0"/>
					<stop  offset="0.8051" style="stop-color:#FFFFFF"/>
				</linearGradient>
				<path fill="url(#SVGID_1_)" d="M561.714,570.99c0.021,11.947-7.835,21.647-17.536,21.664
					c-9.701,0.018-17.59-9.656-17.607-21.604c-0.022-11.949,7.831-21.649,17.535-21.668
					C553.807,549.367,561.689,559.041,561.714,570.99z"/>
				
					<linearGradient id="SVGID_2_" gradientUnits="userSpaceOnUse" x1="839.9873" y1="-94.3232" x2="871.8926" y2="-94.3232" gradientTransform="matrix(0.4683 0.8836 0.8836 -0.4683 226.646 -229.4623)">
					<stop  offset="0.1949" style="stop-color:#FFFFFF"/>
					<stop  offset="0.6624" style="stop-color:#E1E1E0"/>
					<stop  offset="1" style="stop-color:#D0D0CF"/>
				</linearGradient>
				<path fill="url(#SVGID_2_)" d="M533.718,580.535c-1.484-2.801-2.274-6.086-2.28-9.492c-0.008-4.664,1.427-9.01,4.037-12.238
					c2.371-2.932,5.439-4.547,8.639-4.553c4.134-0.006,8.041,2.705,10.449,7.252c1.486,2.803,2.274,6.088,2.281,9.496
					c0.008,4.662-1.426,9.008-4.038,12.232c-2.372,2.93-5.438,4.545-8.636,4.551C540.034,587.793,536.128,585.084,533.718,580.535z"
					/>
			</g>
		</g>
	</g>
	<g>
		
			<image overflow="visible" opacity="0.3" enable-background="new    " width="86" height="86" xlink:href="9A089C82635596CB.png"  transform="matrix(1 0 0 1 502.5 203.5)">
		</image>
		<g>
			<g>
				<path fill="#212121" d="M580.385,238.441c0.014,5.504,0.03,11.008,0.036,16.511c0.006,5.506-0.001,11.01,0.003,16.515
					c0,0.459,0.036,0.832-0.593,0.982c-3.911,0.93-7.812,1.904-11.716,2.863c-0.004-7.386-0.017-14.771,0.001-22.157
					c0.001-0.638-0.117-0.878-0.822-0.871c-3.549,0.038-7.098,0.038-10.646,0c-0.711-0.007-0.821,0.239-0.82,0.873
					c0.022,8.41,0.019,16.819,0.021,25.228c-3.989,1.012-7.979,2.02-11.969,3.037c-0.3,0.077-0.562-0.002-0.843-0.072
					c-11.892-2.973-23.783-5.942-35.677-8.906c-0.431-0.107-0.714-0.213-0.713-0.787c0.022-11.006,0.02-22.011,0.022-33.016
					c0-0.063,0.021-0.127,0.031-0.189c12.081-3.014,24.161-6.025,36.238-9.049c0.414-0.104,0.785-0.131,1.213-0.023
					C556.229,232.409,568.307,235.424,580.385,238.441z"/>
				<path fill="#212121" d="M506.702,229.228c-0.013-3.9-0.012-7.8-0.053-11.7c-0.007-0.592,0.319-0.66,0.738-0.764
					c9.999-2.494,19.997-4.993,29.995-7.491c0.93-0.232,1.907-0.35,2.774-0.725c2.809-1.212,5.477-0.332,8.188,0.352
					c10.422,2.63,20.852,5.231,31.276,7.843c0.384,0.097,0.812,0.061,0.808,0.697c-0.035,3.933-0.035,7.865-0.047,11.797
					c-12.109-3.018-24.222-6.033-36.329-9.062c-0.389-0.098-0.729-0.103-1.116-0.006
					C530.861,223.195,518.781,226.211,506.702,229.228z"/>
				<path fill="#FBC027" d="M506.702,229.228c12.079-3.017,24.159-6.032,36.237-9.06c0.387-0.097,0.728-0.092,1.115,0.006
					c12.107,3.029,24.22,6.045,36.329,9.062c0,3.068,0,6.137,0,9.205c-12.078-3.018-24.157-6.032-36.23-9.062
					c-0.428-0.107-0.798-0.08-1.212,0.023c-12.078,3.023-24.158,6.035-36.239,9.049
					C506.702,235.377,506.702,232.303,506.702,229.228z"/>
				<path fill="#222222" d="M552.361,278.385c-0.004-10.554,0.003-21.108-0.031-31.662c-0.001-0.797,0.156-1.106,1.155-1.098
					c4.989,0.049,9.979,0.049,14.971,0c0.991-0.009,1.158,0.293,1.157,1.094c-0.024,9.271-0.008,18.54-0.003,27.811
					c-4.231,0.97-8.462,1.947-12.696,2.906C555.401,277.777,553.878,278.07,552.361,278.385z"/>
			</g>
		</g>
	</g>
</g>
</svg>
